# xmcd CD database file
#
# Track frame offsets:
#	150
#	19251
#	35565
#	63844
#	84048
#	104042
#	129641
#	151472
#	165384
#	180970
#	198427
#	219480
#	237424
#	264585
#	289493
#	307513
#	338121
#
# Disc length: 4736 seconds
#
# Revision: 0
# Processed by: cddbd v1.5.2PL0 Copyright (c) Steve Scherf et al.
# Submitted via: CDex 1.51
#
DISCID=e6127e11
DTITLE=Billie Holiday - The Ben Webster/Harry Edison Sessions [CD1)
DYEAR=1900
DGENRE=Jazz
TTITLE0=Do nothin' till you hear from me
TTITLE1=Cheek to Cheek
TTITLE2=Ill Wind
TTITLE3=Speak Low
TTITLE4=We'll be together again 
TTITLE5=All or nothing at all
TTITLE6=Sphisticated Lady
TTITLE7=April in Paris
TTITLE8=I wished on the Moon
TTITLE9=Moonlight in Vermont
TTITLE10=A Foggy Day
TTITLE11=Comes Love (Version 1)
TTITLE12=I didn't know what time it was
TTITLE13=Just one of those things
TTITLE14=Comes Love (version 2)
TTITLE15=Day in, Day out
TTITLE16=But not for me
EXTD=
EXTT0=
EXTT1=
EXTT2=
EXTT3=
EXTT4=
EXTT5=
EXTT6=
EXTT7=
EXTT8=
EXTT9=
EXTT10=
EXTT11=
EXTT12=
EXTT13=
EXTT14=
EXTT15=
EXTT16=
PLAYORDER=
